<svg xmlns="http://www.w3.org/2000/svg" viewBox="665 575 105 145" fill="none">
  <!--
    Australia Map - Geographic outline from simple-world-map
    Source: https://github.com/flekschas/simple-world-map
    Ballot Paper Aesthetic styling applied
  -->

  <!-- Australia Mainland -->
  <path
    d="M672.961,609.067l-0.303,21.938l-3.371,2.472l-0.303,2.161l4.598,3.086l11.35-2.161h5.826l2.145-3.095l12.879-2.472l9.198,2.784l-0.614,3.708l1.228,3.708l7.055-1.236l0.303,1.851l-4.599,3.396l1.53,1.236l3.37-1.236l-0.917,10.2l6.44,4.944l3.683-1.236l1.841,1.852l10.735-1.548l10.123-16.381l3.682-0.925l7.357-13.596l1.841-11.739l-4.599-5.869l1.842-1.236l-3.684-11.436l-3.984-2.783l0.614-15.448l-3.684-2.782l-0.916-8.652h-1.842l-6.138,20.392l-3.37,0.312l-7.668-7.728l4.297-11.437l-7.971-1.547l-8.896,2.472l-2.454,7.104l-3.984,0.925l-0.304-4.944l-16.252,9.889l0.304,3.708l-2.454,3.397h-6.139l-13.19,5.56L672.961,609.067z"
    fill="#EEEBE2"
    stroke="#1A1A1A"
    stroke-width="0.8"
    stroke-linejoin="round"
  />

  <!-- Tasmania - more accurate heart/triangle shape -->
  <path
    d="M738,695
       l-5,2
       l-3,5
       l0,6
       l4,5
       l7,2
       l6,-2
       l3,-5
       l0,-6
       l-4,-5
       l-5,-2
       z"
    fill="#EEEBE2"
    stroke="#1A1A1A"
    stroke-width="0.8"
    stroke-linejoin="round"
  />

  <!-- State Labels only - no borders (borders would require accurate geographic data) -->
  <text x="682" y="625" font-family="system-ui, sans-serif" font-size="5" fill="#3A3A3A" text-anchor="middle" font-weight="500">WA</text>
  <text x="710" y="600" font-family="system-ui, sans-serif" font-size="4" fill="#3A3A3A" text-anchor="middle" font-weight="500">NT</text>
  <text x="710" y="635" font-family="system-ui, sans-serif" font-size="4" fill="#3A3A3A" text-anchor="middle" font-weight="500">SA</text>
  <text x="745" y="608" font-family="system-ui, sans-serif" font-size="5" fill="#3A3A3A" text-anchor="middle" font-weight="500">QLD</text>
  <text x="750" y="640" font-family="system-ui, sans-serif" font-size="4" fill="#3A3A3A" text-anchor="middle" font-weight="500">NSW</text>
  <text x="745" y="658" font-family="system-ui, sans-serif" font-size="3" fill="#3A3A3A" text-anchor="middle" font-weight="500">VIC</text>
  <text x="742" y="705" font-family="system-ui, sans-serif" font-size="3.5" fill="#3A3A3A" text-anchor="middle" font-weight="500">TAS</text>
</svg>
