<svg xmlns="http://www.w3.org/2000/svg" viewBox="665 575 105 145" fill="none">
  <!--
    Australia Map - Geographic outline from simple-world-map
    Source: https://github.com/flekschas/simple-world-map
    Ballot Paper Aesthetic styling applied
  -->

  <!-- Australia Mainland -->
  <path
    d="M672.961,609.067l-0.303,21.938l-3.371,2.472l-0.303,2.161l4.598,3.086l11.35-2.161h5.826l2.145-3.095l12.879-2.472l9.198,2.784l-0.614,3.708l1.228,3.708l7.055-1.236l0.303,1.851l-4.599,3.396l1.53,1.236l3.37-1.236l-0.917,10.2l6.44,4.944l3.683-1.236l1.841,1.852l10.735-1.548l10.123-16.381l3.682-0.925l7.357-13.596l1.841-11.739l-4.599-5.869l1.842-1.236l-3.684-11.436l-3.984-2.783l0.614-15.448l-3.684-2.782l-0.916-8.652h-1.842l-6.138,20.392l-3.37,0.312l-7.668-7.728l4.297-11.437l-7.971-1.547l-8.896,2.472l-2.454,7.104l-3.984,0.925l-0.304-4.944l-16.252,9.889l0.304,3.708l-2.454,3.397h-6.139l-13.19,5.56L672.961,609.067z"
    fill="#EEEBE2"
    stroke="#1A1A1A"
    stroke-width="0.8"
    stroke-linejoin="round"
  />

  <!-- Tasmania -->
  <path
    d="M739,697
       c-3,0 -5,1 -7,3
       c-2,2 -2,4 -1,7
       c1,3 3,5 6,6
       c3,1 6,0 8,-2
       c2,-2 3,-5 2,-8
       c-1,-3 -4,-5 -8,-6z"
    fill="#EEEBE2"
    stroke="#1A1A1A"
    stroke-width="0.8"
    stroke-linejoin="round"
  />

  <!-- State Borders -->
  <!-- WA-NT/SA border (roughly 129째E) -->
  <line x1="695" y1="590" x2="695" y2="640" stroke="#1A1A1A" stroke-width="0.4" />

  <!-- NT-QLD border (roughly 138째E) -->
  <line x1="718" y1="590" x2="718" y2="620" stroke="#1A1A1A" stroke-width="0.4" />

  <!-- NT-SA border (roughly 26째S) -->
  <line x1="695" y1="620" x2="718" y2="620" stroke="#1A1A1A" stroke-width="0.4" />

  <!-- SA-QLD border corner -->
  <line x1="718" y1="620" x2="718" y2="628" stroke="#1A1A1A" stroke-width="0.4" />

  <!-- QLD-NSW border (roughly 29째S) -->
  <line x1="718" y1="628" x2="758" y2="635" stroke="#1A1A1A" stroke-width="0.4" />

  <!-- SA-NSW border -->
  <line x1="718" y1="628" x2="718" y2="648" stroke="#1A1A1A" stroke-width="0.4" />

  <!-- SA-VIC border -->
  <line x1="718" y1="648" x2="728" y2="655" stroke="#1A1A1A" stroke-width="0.4" />

  <!-- NSW-VIC border (Murray River approximation) -->
  <path d="M718,648 Q735,655 745,660" stroke="#1A1A1A" stroke-width="0.4" fill="none" />

  <!-- State Labels -->
  <text x="682" y="625" font-family="system-ui, sans-serif" font-size="5" fill="#3A3A3A" text-anchor="middle" font-weight="500">WA</text>
  <text x="706" y="608" font-family="system-ui, sans-serif" font-size="5" fill="#3A3A3A" text-anchor="middle" font-weight="500">NT</text>
  <text x="706" y="638" font-family="system-ui, sans-serif" font-size="5" fill="#3A3A3A" text-anchor="middle" font-weight="500">SA</text>
  <text x="738" y="615" font-family="system-ui, sans-serif" font-size="5" fill="#3A3A3A" text-anchor="middle" font-weight="500">QLD</text>
  <text x="745" y="645" font-family="system-ui, sans-serif" font-size="4" fill="#3A3A3A" text-anchor="middle" font-weight="500">NSW</text>
  <text x="738" y="662" font-family="system-ui, sans-serif" font-size="3.5" fill="#3A3A3A" text-anchor="middle" font-weight="500">VIC</text>
  <text x="742" y="705" font-family="system-ui, sans-serif" font-size="3.5" fill="#3A3A3A" text-anchor="middle" font-weight="500">TAS</text>
</svg>
